{
  "accessors": [
    {
      "bufferView": 2,
      "componentType": 5126,
      "count": 9112,
      "max": [
        1.8332030773162842,
        8.968632698059082,
        1.348199486732483
      ],
      "min": [
        -7.751091003417969,
        -0.6134800910949707,
        -36.43682098388672
      ],
      "type": "VEC3"
    },
    {
      "bufferView": 2,
      "byteOffset": 109344,
      "componentType": 5126,
      "count": 9112,
      "max": [
        1.0,
        1.0,
        1.0
      ],
      "min": [
        -1.0,
        -1.0,
        -1.0
      ],
      "type": "VEC3"
    },
    {
      "bufferView": 1,
      "componentType": 5126,
      "count": 9112,
      "max": [
        1.0,
        1.0
      ],
      "min": [
        0.0,
        -0.007704704999923706
      ],
      "type": "VEC2"
    },
    {
      "bufferView": 0,
      "componentType": 5125,
      "count": 10440,
      "type": "SCALAR"
    },
    {
      "bufferView": 2,
      "byteOffset": 218688,
      "componentType": 5126,
      "count": 41962,
      "max": [
        1.8353781700134277,
        8.970812797546387,
        1.348199486732483
      ],
      "min": [
        -7.751091480255127,
        -0.6660711169242859,
        -36.43682098388672
      ],
      "type": "VEC3"
    },
    {
      "bufferView": 2,
      "byteOffset": 722232,
      "componentType": 5126,
      "count": 41962,
      "max": [
        1.0,
        1.0,
        1.0
      ],
      "min": [
        -1.0,
        -1.0,
        -1.0
      ],
      "type": "VEC3"
    },
    {
      "bufferView": 1,
      "byteOffset": 72896,
      "componentType": 5126,
      "count": 41962,
      "max": [
        1.0000001192092896,
        0.9977973699569702
      ],
      "min": [
        -7.632176002303481e-10,
        0.0
      ],
      "type": "VEC2"
    },
    {
      "bufferView": 0,
      "byteOffset": 41760,
      "componentType": 5125,
      "count": 58419,
      "type": "SCALAR"
    },
    {
      "bufferView": 2,
      "byteOffset": 1225776,
      "componentType": 5126,
      "count": 1489,
      "max": [
        1.8332030773162842,
        4.313204765319824,
        3.270109176635742
      ],
      "min": [
        -6.9257283210754395,
        0.33779749274253845,
        -36.43681335449219
      ],
      "type": "VEC3"
    },
    {
      "bufferView": 2,
      "byteOffset": 1243644,
      "componentType": 5126,
      "count": 1489,
      "max": [
        1.0,
        1.0,
        1.0
      ],
      "min": [
        -1.0,
        -1.0,
        -1.0
      ],
      "type": "VEC3"
    },
    {
      "bufferView": 1,
      "byteOffset": 408592,
      "componentType": 5126,
      "count": 1489,
      "max": [
        0.248225599527359,
        0.1051834225654602
      ],
      "min": [
        0.0,
        0.0
      ],
      "type": "VEC2"
    },
    {
      "bufferView": 0,
      "byteOffset": 275436,
      "componentType": 5125,
      "count": 4371,
      "type": "SCALAR"
    },
    {
      "bufferView": 2,
      "byteOffset": 1261512,
      "componentType": 5126,
      "count": 576,
      "max": [
        -0.19867785274982452,
        4.273136615753174,
        3.3587515354156494
      ],
      "min": [
        -6.885660171508789,
        0.3778645098209381,
        -0.33441972732543945
      ],
      "type": "VEC3"
    },
    {
      "bufferView": 2,
      "byteOffset": 1268424,
      "componentType": 5126,
      "count": 576,
      "max": [
        0.9896408319473267,
        0.9896432161331177,
        1.0
      ],
      "min": [
        -0.9896404147148132,
        -0.989639163017273,
        -0.22604550421237946
      ],
      "type": "VEC3"
    },
    {
      "bufferView": 1,
      "byteOffset": 420504,
      "componentType": 5126,
      "count": 576,
      "max": [
        0.0,
        0.0
      ],
      "min": [
        0.0,
        0.0
      ],
      "type": "VEC2"
    },
    {
      "bufferView": 0,
      "byteOffset": 292920,
      "componentType": 5125,
      "count": 2574,
      "type": "SCALAR"
    },
    {
      "bufferView": 2,
      "byteOffset": 1275336,
      "componentType": 5126,
      "count": 978,
      "max": [
        1.989709496498108,
        3.1662209033966064,
        -12.086616516113281
      ],
      "min": [
        1.8733540773391724,
        -0.3871316909790039,
        -13.57908821105957
      ],
      "type": "VEC3"
    },
    {
      "bufferView": 2,
      "byteOffset": 1287072,
      "componentType": 5126,
      "count": 978,
      "max": [
        1.0,
        0.9999873638153076,
        1.0
      ],
      "min": [
        -1.0,
        -0.9998311400413513,
        -1.0
      ],
      "type": "VEC3"
    },
    {
      "bufferView": 1,
      "byteOffset": 425112,
      "componentType": 5126,
      "count": 978,
      "max": [
        0.9676035642623901,
        0.6980664730072021
      ],
      "min": [
        0.04257071018218994,
        0.30953550338745117
      ],
      "type": "VEC2"
    },
    {
      "bufferView": 0,
      "byteOffset": 303216,
      "componentType": 5125,
      "count": 2820,
      "type": "SCALAR"
    }
  ],
  "asset": {
    "extras": {
      "author": "Taenshi (https://sketchfab.com/taenshi)",
      "license": "CC-BY-4.0 (http://creativecommons.org/licenses/by/4.0/)",
      "source": "https://sketchfab.com/3d-models/stylized-highrise-city-building-tv-station-ba2a076e08f74af2aeaabfaba31495fe",
      "title": "Stylized Highrise City Building TV Station"
    },
    "generator": "Sketchfab-15.26.0",
    "version": "2.0"
  },
  "bufferViews": [
    {
      "buffer": 0,
      "byteLength": 314496,
      "name": "floatBufferViews",
      "target": 34963
    },
    {
      "buffer": 0,
      "byteLength": 432936,
      "byteOffset": 314496,
      "byteStride": 8,
      "name": "floatBufferViews",
      "target": 34962
    },
    {
      "buffer": 0,
      "byteLength": 1298808,
      "byteOffset": 747432,
      "byteStride": 12,
      "name": "floatBufferViews",
      "target": 34962
    }
  ],
  "buffers": [
    {
      "byteLength": 2046240,
      "uri": "scene.bin"
    }
  ],
  "extensionsUsed": [
    "KHR_materials_emissive_strength"
  ],
  "images": [
    {
      "uri": "textures/highrisebuilduing_office_glass_baseColor.jpeg"
    },
    {
      "uri": "textures/Material.002_baseColor.png"
    }
  ],
  "materials": [
    {
      "doubleSided": true,
      "name": "highrisebuilduing_office_glass",
      "pbrMetallicRoughness": {
        "baseColorTexture": {
          "index": 0
        },
        "metallicFactor": 0.0,
        "roughnessFactor": 0.0
      }
    },
    {
      "doubleSided": true,
      "name": "highrisebuilduing_office",
      "pbrMetallicRoughness": {
        "baseColorTexture": {
          "index": 0
        },
        "metallicFactor": 0.06042642820938637,
        "roughnessFactor": 0.5205359009113026
      }
    },
    {
      "doubleSided": true,
      "name": "Antenna",
      "pbrMetallicRoughness": {
        "baseColorFactor": [
          0.334769,
          0.374606,
          0.397208,
          1.0
        ],
        "metallicFactor": 0.303346817124929,
        "roughnessFactor": 0.1097719158608486
      }
    },
    {
      "doubleSided": true,
      "emissiveFactor": [
        1.0,
        0.0,
        0.0
      ],
      "extensions": {
        "KHR_materials_emissive_strength": {
          "emissiveStrength": 6.434353616066887
        }
      },
      "name": "Material.001",
      "pbrMetallicRoughness": {
        "baseColorFactor": [
          1.0,
          0.0,
          0.0,
          1.0
        ],
        "metallicFactor": 0.0,
        "roughnessFactor": 0.8040408205773457
      }
    },
    {
      "doubleSided": true,
      "name": "Material.002",
      "pbrMetallicRoughness": {
        "baseColorTexture": {
          "index": 1
        },
        "metallicFactor": 0.0
      }
    }
  ],
  "meshes": [
    {
      "name": "Plane.001_highrisebuilduing_office glass_0",
      "primitives": [
        {
          "attributes": {
            "NORMAL": 1,
            "POSITION": 0,
            "TEXCOORD_0": 2
          },
          "indices": 3,
          "material": 0,
          "mode": 4
        }
      ]
    },
    {
      "name": "Plane.001_highrisebuilduing_office_0",
      "primitives": [
        {
          "attributes": {
            "NORMAL": 5,
            "POSITION": 4,
            "TEXCOORD_0": 6
          },
          "indices": 7,
          "material": 1,
          "mode": 4
        }
      ]
    },
    {
      "name": "Plane.001_Antenna_0",
      "primitives": [
        {
          "attributes": {
            "NORMAL": 9,
            "POSITION": 8,
            "TEXCOORD_0": 10
          },
          "indices": 11,
          "material": 2,
          "mode": 4
        }
      ]
    },
    {
      "name": "Plane.001_Material.001_0",
      "primitives": [
        {
          "attributes": {
            "NORMAL": 13,
            "POSITION": 12,
            "TEXCOORD_0": 14
          },
          "indices": 15,
          "material": 3,
          "mode": 4
        }
      ]
    },
    {
      "name": "Plane.001_Material.002_0",
      "primitives": [
        {
          "attributes": {
            "NORMAL": 17,
            "POSITION": 16,
            "TEXCOORD_0": 18
          },
          "indices": 19,
          "material": 4,
          "mode": 4
        }
      ]
    }
  ],
  "nodes": [
    {
      "children": [
        1
      ],
      "matrix": [
        1.0,
        0.0,
        0.0,
        0.0,
        0.0,
        2.220446049250313e-16,
        -1.0,
        0.0,
        0.0,
        1.0,
        2.220446049250313e-16,
        0.0,
        0.0,
        0.0,
        0.0,
        1.0
      ],
      "name": "Sketchfab_model"
    },
    {
      "children": [
        2
      ],
      "matrix": [
        0.009999999776482582,
        0.0,
        0.0,
        0.0,
        0.0,
        0.0,
        0.009999999776482582,
        0.0,
        0.0,
        -0.009999999776482582,
        0.0,
        0.0,
        0.0,
        0.0,
        0.0,
        1.0
      ],
      "name": "extrabuilduing.fbx"
    },
    {
      "children": [
        3
      ],
      "name": "RootNode"
    },
    {
      "children": [
        4,
        5,
        6,
        7,
        8
      ],
      "matrix": [
        6.976872374150439e-06,
        1.7720517097425358e-14,
        159.61222839355455,
        0.0,
        159.61222839355437,
        -6.976872374150439e-06,
        -6.9768723830106975e-06,
        0.0,
        6.9768723830106975e-06,
        159.61222839355455,
        -3.1896930775365644e-13,
        0.0,
        -1648.7142333984375,
        5855.853515625,
        485.21728515625,
        1.0
      ],
      "name": "Plane.001"
    },
    {
      "mesh": 0,
      "name": "Plane.001_highrisebuilduing_office glass_0"
    },
    {
      "mesh": 1,
      "name": "Plane.001_highrisebuilduing_office_0"
    },
    {
      "mesh": 2,
      "name": "Plane.001_Antenna_0"
    },
    {
      "mesh": 3,
      "name": "Plane.001_Material.001_0"
    },
    {
      "mesh": 4,
      "name": "Plane.001_Material.002_0"
    }
  ],
  "samplers": [
    {
      "magFilter": 9729,
      "minFilter": 9987,
      "wrapS": 33071,
      "wrapT": 33071
    },
    {
      "magFilter": 9729,
      "minFilter": 9987,
      "wrapS": 10497,
      "wrapT": 10497
    }
  ],
  "scene": 0,
  "scenes": [
    {
      "name": "Sketchfab_Scene",
      "nodes": [
        0
      ]
    }
  ],
  "textures": [
    {
      "sampler": 0,
      "source": 0
    },
    {
      "sampler": 1,
      "source": 1
    }
  ]
}
