{
  "accessors": [
    {
      "bufferView": 2,
      "componentType": 5126,
      "count": 5531,
      "max": [
        0.8670852184295654,
        5.3048481941223145,
        3.4020471572875977
      ],
      "min": [
        -23.360721588134766,
        -4.304288864135742,
        -3.8426527976989746
      ],
      "type": "VEC3"
    },
    {
      "bufferView": 2,
      "byteOffset": 66372,
      "componentType": 5126,
      "count": 5531,
      "max": [
        1.0,
        1.0,
        1.0
      ],
      "min": [
        -1.0,
        -1.0,
        -1.0
      ],
      "type": "VEC3"
    },
    {
      "bufferView": 3,
      "componentType": 5126,
      "count": 5531,
      "max": [
        1.0,
        1.0,
        1.0,
        1.0
      ],
      "min": [
        -1.0,
        -1.0,
        -1.0,
        -1.0
      ],
      "type": "VEC4"
    },
    {
      "bufferView": 1,
      "componentType": 5126,
      "count": 5531,
      "max": [
        1.0013847351074219,
        0.9917256236076355
      ],
      "min": [
        -9.277462959289551e-05,
        -0.0009533464908599854
      ],
      "type": "VEC2"
    },
    {
      "bufferView": 1,
      "byteOffset": 44248,
      "componentType": 5126,
      "count": 5531,
      "max": [
        1.0013847351074219,
        0.9917256236076355
      ],
      "min": [
        -9.277462959289551e-05,
        -0.0009533464908599854
      ],
      "type": "VEC2"
    },
    {
      "bufferView": 1,
      "byteOffset": 88496,
      "componentType": 5126,
      "count": 5531,
      "max": [
        0.9975157976150513,
        0.9985134601593018
      ],
      "min": [
        0.0,
        0.0
      ],
      "type": "VEC2"
    },
    {
      "bufferView": 1,
      "byteOffset": 132744,
      "componentType": 5126,
      "count": 5531,
      "max": [
        1.0013847351074219,
        0.9917256236076355
      ],
      "min": [
        -9.277462959289551e-05,
        -0.0009533464908599854
      ],
      "type": "VEC2"
    },
    {
      "bufferView": 0,
      "componentType": 5125,
      "count": 8838,
      "type": "SCALAR"
    }
  ],
  "asset": {
    "extras": {
      "author": "Orzechu (https://sketchfab.com/Orzechu)",
      "license": "CC-BY-4.0 (http://creativecommons.org/licenses/by/4.0/)",
      "source": "https://sketchfab.com/3d-models/low-poly-old-american-brick-building-with-shop-3170993b67ee4e58b27d69d5877f71bd",
      "title": "Low-poly Old American brick building with shop."
    },
    "generator": "Sketchfab-12.67.0",
    "version": "2.0"
  },
  "bufferViews": [
    {
      "buffer": 0,
      "byteLength": 35352,
      "name": "floatBufferViews",
      "target": 34963
    },
    {
      "buffer": 0,
      "byteLength": 176992,
      "byteOffset": 35352,
      "byteStride": 8,
      "name": "floatBufferViews",
      "target": 34962
    },
    {
      "buffer": 0,
      "byteLength": 132744,
      "byteOffset": 212344,
      "byteStride": 12,
      "name": "floatBufferViews",
      "target": 34962
    },
    {
      "buffer": 0,
      "byteLength": 88496,
      "byteOffset": 345088,
      "byteStride": 16,
      "name": "floatBufferViews",
      "target": 34962
    }
  ],
  "buffers": [
    {
      "byteLength": 433584,
      "uri": "scene.bin"
    }
  ],
  "images": [
    {
      "uri": "textures/MainBuilding_baseColor.jpeg"
    },
    {
      "uri": "textures/MainBuilding_metallicRoughness.png"
    },
    {
      "uri": "textures/MainBuilding_normal.jpeg"
    }
  ],
  "materials": [
    {
      "doubleSided": true,
      "name": "MainBuilding",
      "normalTexture": {
        "index": 2
      },
      "occlusionTexture": {
        "index": 1
      },
      "pbrMetallicRoughness": {
        "baseColorTexture": {
          "index": 0
        },
        "metallicRoughnessTexture": {
          "index": 1,
          "texCoord": 1
        },
        "roughnessFactor": 0.8529342915686239
      }
    }
  ],
  "meshes": [
    {
      "name": "Object_0",
      "primitives": [
        {
          "attributes": {
            "NORMAL": 1,
            "POSITION": 0,
            "TANGENT": 2,
            "TEXCOORD_0": 3,
            "TEXCOORD_1": 4,
            "TEXCOORD_2": 5,
            "TEXCOORD_3": 6
          },
          "indices": 7,
          "material": 0,
          "mode": 4
        }
      ]
    }
  ],
  "nodes": [
    {
      "children": [
        1
      ],
      "matrix": [
        1.0,
        0.0,
        0.0,
        0.0,
        0.0,
        2.220446049250313e-16,
        -1.0,
        0.0,
        0.0,
        1.0,
        2.220446049250313e-16,
        0.0,
        0.0,
        0.0,
        0.0,
        1.0
      ],
      "name": "Sketchfab_model"
    },
    {
      "children": [
        2
      ],
      "name": "root"
    },
    {
      "children": [
        3
      ],
      "matrix": [
        1.0,
        0.0,
        0.0,
        0.0,
        0.0,
        2.220446049250313e-16,
        1.0,
        0.0,
        0.0,
        -1.0,
        2.220446049250313e-16,
        0.0,
        0.0,
        0.0,
        0.0,
        1.0
      ],
      "name": "GLTF_SceneRootNode"
    },
    {
      "children": [
        4
      ],
      "matrix": [
        1.0,
        0.0,
        0.0,
        0.0,
        0.0,
        1.0,
        0.0,
        0.0,
        0.0,
        0.0,
        1.0,
        0.0,
        11.20684814453125,
        8.773228645324707,
        0.0,
        1.0
      ],
      "name": "MainBuilding_0"
    },
    {
      "mesh": 0,
      "name": "Object_4"
    }
  ],
  "samplers": [
    {
      "magFilter": 9729,
      "minFilter": 9987,
      "wrapS": 10497,
      "wrapT": 10497
    }
  ],
  "scene": 0,
  "scenes": [
    {
      "name": "Sketchfab_Scene",
      "nodes": [
        0
      ]
    }
  ],
  "textures": [
    {
      "sampler": 0,
      "source": 0
    },
    {
      "sampler": 0,
      "source": 1
    },
    {
      "sampler": 0,
      "source": 2
    }
  ]
}
