{
  "accessors": [
    {
      "bufferView": 2,
      "componentType": 5126,
      "count": 72,
      "max": [
        58.232444763183594,
        -23.448543548583984,
        25.010963439941406
      ],
      "min": [
        32.06034851074219,
        -50.544677734375,
        23.487966537475586
      ],
      "type": "VEC3"
    },
    {
      "bufferView": 2,
      "byteOffset": 864,
      "componentType": 5126,
      "count": 72,
      "max": [
        0.0,
        2.018369116285612e-07,
        1.0
      ],
      "min": [
        0.0,
        1.248158980615699e-07,
        1.0
      ],
      "type": "VEC3"
    },
    {
      "bufferView": 3,
      "componentType": 5126,
      "count": 72,
      "max": [
        1.0,
        0.0,
        2.8791009019143304e-14,
        1.0
      ],
      "min": [
        1.0,
        -2.3066780840963474e-07,
        0.0,
        1.0
      ],
      "type": "VEC4"
    },
    {
      "bufferView": 1,
      "componentType": 5126,
      "count": 72,
      "max": [
        1.298088550567627,
        0.992477536201477
      ],
      "min": [
        -0.23872613906860352,
        0.5056633353233337
      ],
      "type": "VEC2"
    },
    {
      "bufferView": 1,
      "byteOffset": 576,
      "componentType": 5126,
      "count": 72,
      "max": [
        1.298088550567627,
        0.992477536201477
      ],
      "min": [
        -0.23872613906860352,
        0.5056633353233337
      ],
      "type": "VEC2"
    },
    {
      "bufferView": 0,
      "componentType": 5125,
      "count": 108,
      "type": "SCALAR"
    },
    {
      "bufferView": 2,
      "byteOffset": 1728,
      "componentType": 5126,
      "count": 2536,
      "max": [
        97.98212432861328,
        32.64916229248047,
        44.63743591308594
      ],
      "min": [
        57.683021545410156,
        -55.29743957519531,
        -7.9785919189453125
      ],
      "type": "VEC3"
    },
    {
      "bufferView": 2,
      "byteOffset": 32160,
      "componentType": 5126,
      "count": 2536,
      "max": [
        1.0,
        1.0,
        1.0
      ],
      "min": [
        -1.0,
        -1.0,
        -1.0
      ],
      "type": "VEC3"
    },
    {
      "bufferView": 1,
      "byteOffset": 1152,
      "componentType": 5126,
      "count": 2536,
      "max": [
        0.9989989995956421,
        0.9989989995956421
      ],
      "min": [
        0.0010010009864345193,
        0.0010010009864345193
      ],
      "type": "VEC2"
    },
    {
      "bufferView": 0,
      "byteOffset": 432,
      "componentType": 5125,
      "count": 3588,
      "type": "SCALAR"
    },
    {
      "bufferView": 2,
      "byteOffset": 62592,
      "componentType": 5126,
      "count": 104,
      "max": [
        142.0638427734375,
        -37.34553909301758,
        35.38493347167969
      ],
      "min": [
        12.807027816772461,
        -55.29743957519531,
        23.854904174804688
      ],
      "type": "VEC3"
    },
    {
      "bufferView": 2,
      "byteOffset": 63840,
      "componentType": 5126,
      "count": 104,
      "max": [
        1.0,
        0.9537873864173889,
        1.0
      ],
      "min": [
        -1.0,
        -0.953782320022583,
        -0.9608516693115234
      ],
      "type": "VEC3"
    },
    {
      "bufferView": 1,
      "byteOffset": 21440,
      "componentType": 5126,
      "count": 104,
      "max": [
        0.8462010025978088,
        0.8721280097961426
      ],
      "min": [
        0.012701000086963177,
        0.0
      ],
      "type": "VEC2"
    },
    {
      "bufferView": 0,
      "byteOffset": 14784,
      "componentType": 5125,
      "count": 216,
      "type": "SCALAR"
    },
    {
      "bufferView": 2,
      "byteOffset": 65088,
      "componentType": 5126,
      "count": 146,
      "max": [
        126.06704711914063,
        30.154659271240234,
        26.531902313232422
      ],
      "min": [
        29.354347229003906,
        -55.29848098754883,
        -63.019065856933594
      ],
      "type": "VEC3"
    },
    {
      "bufferView": 2,
      "byteOffset": 66840,
      "componentType": 5126,
      "count": 146,
      "max": [
        1.0,
        0.0013670804910361767,
        0.0
      ],
      "min": [
        -1.0,
        -0.017080845311284065,
        -1.0
      ],
      "type": "VEC3"
    },
    {
      "bufferView": 1,
      "byteOffset": 22272,
      "componentType": 5126,
      "count": 146,
      "max": [
        1.0058432817459106,
        0.9633583426475525
      ],
      "min": [
        -0.0885297954082489,
        -0.4731566309928894
      ],
      "type": "VEC2"
    },
    {
      "bufferView": 0,
      "byteOffset": 15648,
      "componentType": 5125,
      "count": 354,
      "type": "SCALAR"
    },
    {
      "bufferView": 2,
      "byteOffset": 68592,
      "componentType": 5126,
      "count": 7536,
      "max": [
        171.5960693359375,
        48.494564056396484,
        31.457927703857422
      ],
      "min": [
        -16.17298126220703,
        -55.297508239746094,
        -67.94405364990234
      ],
      "type": "VEC3"
    },
    {
      "bufferView": 2,
      "byteOffset": 159024,
      "componentType": 5126,
      "count": 7536,
      "max": [
        1.0,
        1.0,
        1.0
      ],
      "min": [
        -1.0,
        -1.0,
        -1.0
      ],
      "type": "VEC3"
    },
    {
      "bufferView": 1,
      "byteOffset": 23440,
      "componentType": 5126,
      "count": 7536,
      "max": [
        1.0,
        1.0
      ],
      "min": [
        0.0004885197849944234,
        0.0004886668175458908
      ],
      "type": "VEC2"
    },
    {
      "bufferView": 0,
      "byteOffset": 17064,
      "componentType": 5125,
      "count": 15576,
      "type": "SCALAR"
    },
    {
      "bufferView": 2,
      "byteOffset": 249456,
      "componentType": 5126,
      "count": 3294,
      "max": [
        126.06704711914063,
        30.06155776977539,
        30.733383178710938
      ],
      "min": [
        29.354347229003906,
        -55.29848098754883,
        -9.495254516601563
      ],
      "type": "VEC3"
    },
    {
      "bufferView": 2,
      "byteOffset": 288984,
      "componentType": 5126,
      "count": 3294,
      "max": [
        1.0,
        1.0,
        1.0
      ],
      "min": [
        -1.0,
        -1.0,
        -1.0
      ],
      "type": "VEC3"
    },
    {
      "bufferView": 1,
      "byteOffset": 83728,
      "componentType": 5126,
      "count": 3294,
      "max": [
        1.0,
        1.0
      ],
      "min": [
        0.0009775171056389809,
        0.0009788352763280272
      ],
      "type": "VEC2"
    },
    {
      "bufferView": 0,
      "byteOffset": 79368,
      "componentType": 5125,
      "count": 4596,
      "type": "SCALAR"
    }
  ],
  "asset": {
    "extras": {
      "author": "99.Miles (https://sketchfab.com/99.Miles)",
      "license": "CC-BY-4.0 (http://creativecommons.org/licenses/by/4.0/)",
      "source": "https://sketchfab.com/3d-models/low-poly-classical-new-york-city-homes-449d873dcca0409bb73b6b801ff36bed",
      "title": "Low Poly classical New York City homes"
    },
    "generator": "Sketchfab-15.30.0",
    "version": "2.0"
  },
  "bufferViews": [
    {
      "buffer": 0,
      "byteLength": 97752,
      "name": "floatBufferViews",
      "target": 34963
    },
    {
      "buffer": 0,
      "byteLength": 110080,
      "byteOffset": 97752,
      "byteStride": 8,
      "name": "floatBufferViews",
      "target": 34962
    },
    {
      "buffer": 0,
      "byteLength": 328512,
      "byteOffset": 207832,
      "byteStride": 12,
      "name": "floatBufferViews",
      "target": 34962
    },
    {
      "buffer": 0,
      "byteLength": 1152,
      "byteOffset": 536344,
      "byteStride": 16,
      "name": "floatBufferViews",
      "target": 34962
    }
  ],
  "buffers": [
    {
      "byteLength": 537496,
      "uri": "scene.bin"
    }
  ],
  "images": [
    {
      "uri": "textures/Fence_Trimsheet_baseColor.png"
    },
    {
      "uri": "textures/Fence_Trimsheet_normal.png"
    },
    {
      "uri": "textures/Building3_baseColor.png"
    },
    {
      "uri": "textures/Building3_metallicRoughness.png"
    },
    {
      "uri": "textures/Construction_baseColor.png"
    },
    {
      "uri": "textures/Walls_baseColor.png"
    },
    {
      "uri": "textures/Building1_baseColor.png"
    },
    {
      "uri": "textures/Building1_metallicRoughness.png"
    },
    {
      "uri": "textures/Building2_baseColor.png"
    },
    {
      "uri": "textures/Building2_metallicRoughness.png"
    }
  ],
  "materials": [
    {
      "alphaMode": "BLEND",
      "doubleSided": true,
      "name": "Fence_Trimsheet",
      "normalTexture": {
        "index": 1
      },
      "pbrMetallicRoughness": {
        "baseColorTexture": {
          "index": 0
        },
        "metallicFactor": 0.0,
        "roughnessFactor": 0.38247735612146627
      }
    },
    {
      "doubleSided": true,
      "name": "Building3",
      "occlusionTexture": {
        "index": 3
      },
      "pbrMetallicRoughness": {
        "baseColorTexture": {
          "index": 2
        },
        "metallicFactor": 0.0,
        "metallicRoughnessTexture": {
          "index": 3
        }
      }
    },
    {
      "doubleSided": true,
      "name": "Construction",
      "pbrMetallicRoughness": {
        "baseColorTexture": {
          "index": 4
        },
        "metallicFactor": 0.0,
        "roughnessFactor": 0.8211145618000169
      }
    },
    {
      "doubleSided": true,
      "name": "Walls",
      "pbrMetallicRoughness": {
        "baseColorTexture": {
          "index": 5
        },
        "metallicFactor": 0.0
      }
    },
    {
      "doubleSided": true,
      "name": "Building1",
      "occlusionTexture": {
        "index": 7
      },
      "pbrMetallicRoughness": {
        "baseColorTexture": {
          "index": 6
        },
        "metallicFactor": 0.0,
        "metallicRoughnessTexture": {
          "index": 7
        }
      }
    },
    {
      "doubleSided": true,
      "name": "Building2",
      "occlusionTexture": {
        "index": 9
      },
      "pbrMetallicRoughness": {
        "baseColorTexture": {
          "index": 8
        },
        "metallicFactor": 0.0,
        "metallicRoughnessTexture": {
          "index": 9
        },
        "roughnessFactor": 0.8211145618000169
      }
    }
  ],
  "meshes": [
    {
      "name": "jg.005_Fence Trimsheet_0",
      "primitives": [
        {
          "attributes": {
            "NORMAL": 1,
            "POSITION": 0,
            "TANGENT": 2,
            "TEXCOORD_0": 3,
            "TEXCOORD_1": 4
          },
          "indices": 5,
          "material": 0,
          "mode": 4
        }
      ]
    },
    {
      "name": "jg.001_Building3_0",
      "primitives": [
        {
          "attributes": {
            "NORMAL": 7,
            "POSITION": 6,
            "TEXCOORD_0": 8
          },
          "indices": 9,
          "material": 1,
          "mode": 4
        }
      ]
    },
    {
      "name": "jg.002_Construction_0",
      "primitives": [
        {
          "attributes": {
            "NORMAL": 11,
            "POSITION": 10,
            "TEXCOORD_0": 12
          },
          "indices": 13,
          "material": 2,
          "mode": 4
        }
      ]
    },
    {
      "name": "jg.003_Walls_0",
      "primitives": [
        {
          "attributes": {
            "NORMAL": 15,
            "POSITION": 14,
            "TEXCOORD_0": 16
          },
          "indices": 17,
          "material": 3,
          "mode": 4
        }
      ]
    },
    {
      "name": "jg.004_Building1_0",
      "primitives": [
        {
          "attributes": {
            "NORMAL": 19,
            "POSITION": 18,
            "TEXCOORD_0": 20
          },
          "indices": 21,
          "material": 4,
          "mode": 4
        }
      ]
    },
    {
      "name": "jg.006_Building2_0",
      "primitives": [
        {
          "attributes": {
            "NORMAL": 23,
            "POSITION": 22,
            "TEXCOORD_0": 24
          },
          "indices": 25,
          "material": 5,
          "mode": 4
        }
      ]
    }
  ],
  "nodes": [
    {
      "children": [
        1
      ],
      "matrix": [
        1.0,
        0.0,
        0.0,
        0.0,
        0.0,
        2.220446049250313e-16,
        -1.0,
        0.0,
        0.0,
        1.0,
        2.220446049250313e-16,
        0.0,
        0.0,
        0.0,
        0.0,
        1.0
      ],
      "name": "Sketchfab_model"
    },
    {
      "children": [
        2
      ],
      "matrix": [
        0.009999999776482582,
        0.0,
        0.0,
        0.0,
        0.0,
        0.0,
        0.009999999776482582,
        0.0,
        0.0,
        -0.009999999776482582,
        0.0,
        0.0,
        0.0,
        0.0,
        0.0,
        1.0
      ],
      "name": "Buildings.fbx"
    },
    {
      "children": [
        3,
        5,
        7,
        9,
        11,
        13
      ],
      "name": "RootNode"
    },
    {
      "children": [
        4
      ],
      "matrix": [
        100.0,
        0.0,
        0.0,
        0.0,
        0.0,
        99.99999999999866,
        1.6292067073209114e-05,
        0.0,
        0.0,
        -1.6292067073209114e-05,
        99.99999999999866,
        0.0,
        -5284.685546875,
        5629.74365234375,
        -9597.8984375,
        1.0
      ],
      "name": "jg.005"
    },
    {
      "mesh": 0,
      "name": "jg.005_Fence Trimsheet_0"
    },
    {
      "children": [
        6
      ],
      "matrix": [
        100.0,
        0.0,
        0.0,
        0.0,
        0.0,
        99.99999999999866,
        1.6292067073209114e-05,
        0.0,
        0.0,
        -1.6292067073209114e-05,
        99.99999999999866,
        0.0,
        -5284.685546875,
        5629.74365234375,
        -9597.8984375,
        1.0
      ],
      "name": "jg.001"
    },
    {
      "mesh": 1,
      "name": "jg.001_Building3_0"
    },
    {
      "children": [
        8
      ],
      "matrix": [
        100.0,
        0.0,
        0.0,
        0.0,
        0.0,
        99.99999999999866,
        1.6292067073209114e-05,
        0.0,
        0.0,
        -1.6292067073209114e-05,
        99.99999999999866,
        0.0,
        -5284.685546875,
        5629.74365234375,
        -9597.8984375,
        1.0
      ],
      "name": "jg.002"
    },
    {
      "mesh": 2,
      "name": "jg.002_Construction_0"
    },
    {
      "children": [
        10
      ],
      "matrix": [
        100.0,
        0.0,
        0.0,
        0.0,
        0.0,
        99.99999999999866,
        1.6292067073209114e-05,
        0.0,
        0.0,
        -1.6292067073209114e-05,
        99.99999999999866,
        0.0,
        -5284.685546875,
        5629.74365234375,
        -9597.8984375,
        1.0
      ],
      "name": "jg.003"
    },
    {
      "mesh": 3,
      "name": "jg.003_Walls_0"
    },
    {
      "children": [
        12
      ],
      "matrix": [
        100.0,
        0.0,
        0.0,
        0.0,
        0.0,
        99.99999999999866,
        1.6292067073209114e-05,
        0.0,
        0.0,
        -1.6292067073209114e-05,
        99.99999999999866,
        0.0,
        -5284.685546875,
        5629.74365234375,
        -9597.8984375,
        1.0
      ],
      "name": "jg.004"
    },
    {
      "mesh": 4,
      "name": "jg.004_Building1_0"
    },
    {
      "children": [
        14
      ],
      "matrix": [
        100.0,
        0.0,
        0.0,
        0.0,
        0.0,
        99.99999999999866,
        1.6292067073209114e-05,
        0.0,
        0.0,
        -1.6292067073209114e-05,
        99.99999999999866,
        0.0,
        -5284.685546875,
        5629.74365234375,
        -9597.8984375,
        1.0
      ],
      "name": "jg.006"
    },
    {
      "mesh": 5,
      "name": "jg.006_Building2_0"
    }
  ],
  "samplers": [
    {
      "magFilter": 9729,
      "minFilter": 9987,
      "wrapS": 10497,
      "wrapT": 10497
    }
  ],
  "scene": 0,
  "scenes": [
    {
      "name": "Sketchfab_Scene",
      "nodes": [
        0
      ]
    }
  ],
  "textures": [
    {
      "sampler": 0,
      "source": 0
    },
    {
      "sampler": 0,
      "source": 1
    },
    {
      "sampler": 0,
      "source": 2
    },
    {
      "sampler": 0,
      "source": 3
    },
    {
      "sampler": 0,
      "source": 4
    },
    {
      "sampler": 0,
      "source": 5
    },
    {
      "sampler": 0,
      "source": 6
    },
    {
      "sampler": 0,
      "source": 7
    },
    {
      "sampler": 0,
      "source": 8
    },
    {
      "sampler": 0,
      "source": 9
    }
  ]
}
