{
  "accessors": [
    {
      "bufferView": 2,
      "componentType": 5126,
      "count": 1584,
      "max": [
        2.7967898845672607,
        2.5,
        4.2824602127075195
      ],
      "min": [
        -2.7967898845672607,
        -3.3269801139831543,
        0.0
      ],
      "type": "VEC3"
    },
    {
      "bufferView": 2,
      "byteOffset": 19008,
      "componentType": 5126,
      "count": 1584,
      "max": [
        1.0,
        1.0,
        1.0
      ],
      "min": [
        -1.0,
        -1.0,
        -1.0
      ],
      "type": "VEC3"
    },
    {
      "bufferView": 1,
      "componentType": 5126,
      "count": 1584,
      "max": [
        1.0,
        2.0
      ],
      "min": [
        0.0,
        1.0
      ],
      "type": "VEC2"
    },
    {
      "bufferView": 0,
      "componentType": 5125,
      "count": 2904,
      "type": "SCALAR"
    },
    {
      "bufferView": 2,
      "byteOffset": 38016,
      "componentType": 5126,
      "count": 80,
      "max": [
        2.5999999046325684,
        2.5999999046325684,
        4.0465898513793945
      ],
      "min": [
        -2.5999999046325684,
        -2.5999999046325684,
        0.0
      ],
      "type": "VEC3"
    },
    {
      "bufferView": 2,
      "byteOffset": 38976,
      "componentType": 5126,
      "count": 80,
      "max": [
        0.9999833703041077,
        0.9999833106994629,
        0.0
      ],
      "min": [
        -0.9999833703041077,
        -0.9999833703041077,
        -1.0
      ],
      "type": "VEC3"
    },
    {
      "bufferView": 1,
      "byteOffset": 12672,
      "componentType": 5126,
      "count": 80,
      "max": [
        3.550649881362915,
        2.0043599605560303
      ],
      "min": [
        5.040750039597697e-10,
        0.4981189966201782
      ],
      "type": "VEC2"
    },
    {
      "bufferView": 0,
      "byteOffset": 11616,
      "componentType": 5125,
      "count": 180,
      "type": "SCALAR"
    },
    {
      "bufferView": 2,
      "byteOffset": 39936,
      "componentType": 5126,
      "count": 318,
      "max": [
        2.7967898845672607,
        2.6500000953674316,
        4.2824602127075195
      ],
      "min": [
        -2.7967898845672607,
        -3.3269801139831543,
        0.0
      ],
      "type": "VEC3"
    },
    {
      "bufferView": 2,
      "byteOffset": 43752,
      "componentType": 5126,
      "count": 318,
      "max": [
        1.0,
        1.0,
        1.0
      ],
      "min": [
        -1.0,
        -1.0,
        -1.0
      ],
      "type": "VEC3"
    },
    {
      "bufferView": 1,
      "byteOffset": 13312,
      "componentType": 5126,
      "count": 318,
      "max": [
        1.0022499561309814,
        2.0
      ],
      "min": [
        0.0,
        0.4557949900627136
      ],
      "type": "VEC2"
    },
    {
      "bufferView": 0,
      "byteOffset": 12336,
      "componentType": 5125,
      "count": 732,
      "type": "SCALAR"
    },
    {
      "bufferView": 2,
      "byteOffset": 47568,
      "componentType": 5126,
      "count": 24,
      "max": [
        0.5116299986839294,
        2.6293699741363525,
        2.433120012283325
      ],
      "min": [
        -0.8606029748916626,
        2.4679300785064697,
        0.0
      ],
      "type": "VEC3"
    },
    {
      "bufferView": 2,
      "byteOffset": 47856,
      "componentType": 5126,
      "count": 24,
      "max": [
        1.0,
        1.0,
        1.0
      ],
      "min": [
        -1.0,
        -1.0,
        -1.0
      ],
      "type": "VEC3"
    },
    {
      "bufferView": 1,
      "byteOffset": 15856,
      "componentType": 5126,
      "count": 24,
      "max": [
        1.0,
        1.8870099782943726
      ],
      "min": [
        0.44256100058555603,
        1.0
      ],
      "type": "VEC2"
    },
    {
      "bufferView": 0,
      "byteOffset": 15264,
      "componentType": 5125,
      "count": 36,
      "type": "SCALAR"
    },
    {
      "bufferView": 2,
      "byteOffset": 48144,
      "componentType": 5126,
      "count": 16,
      "max": [
        2.5,
        2.5,
        4.2824602127075195
      ],
      "min": [
        -2.5,
        -2.5,
        4.282450199127197
      ],
      "type": "VEC3"
    },
    {
      "bufferView": 2,
      "byteOffset": 48336,
      "componentType": 5126,
      "count": 16,
      "max": [
        0.0,
        0.0,
        1.0
      ],
      "min": [
        0.0,
        -6.008147465763614e-06,
        1.0
      ],
      "type": "VEC3"
    },
    {
      "bufferView": 1,
      "byteOffset": 16048,
      "componentType": 5126,
      "count": 16,
      "max": [
        1.0,
        2.0
      ],
      "min": [
        0.0,
        1.0
      ],
      "type": "VEC2"
    },
    {
      "bufferView": 0,
      "byteOffset": 15408,
      "componentType": 5125,
      "count": 54,
      "type": "SCALAR"
    },
    {
      "bufferView": 2,
      "byteOffset": 48528,
      "componentType": 5126,
      "count": 628,
      "max": [
        2.450000047683716,
        0.9275389909744263,
        2.7860000133514404
      ],
      "min": [
        -2.450000047683716,
        -2.4934499263763428,
        0.1173819974064827
      ],
      "type": "VEC3"
    },
    {
      "bufferView": 2,
      "byteOffset": 56064,
      "componentType": 5126,
      "count": 628,
      "max": [
        1.0,
        1.0,
        1.0
      ],
      "min": [
        -1.0,
        -1.0,
        -1.0
      ],
      "type": "VEC3"
    },
    {
      "bufferView": 1,
      "byteOffset": 16176,
      "componentType": 5126,
      "count": 628,
      "max": [
        0.9014919996261597,
        1.72707998752594
      ],
      "min": [
        -0.48894599080085754,
        0.2541930079460144
      ],
      "type": "VEC2"
    },
    {
      "bufferView": 0,
      "byteOffset": 15624,
      "componentType": 5125,
      "count": 942,
      "type": "SCALAR"
    },
    {
      "bufferView": 2,
      "byteOffset": 63600,
      "componentType": 5126,
      "count": 79,
      "max": [
        2.5,
        0.8333330154418945,
        2.7824599742889404
      ],
      "min": [
        -2.5,
        -2.5,
        0.8695380091667175
      ],
      "type": "VEC3"
    },
    {
      "bufferView": 2,
      "byteOffset": 64548,
      "componentType": 5126,
      "count": 79,
      "max": [
        1.0,
        0.0,
        0.0
      ],
      "min": [
        -1.0,
        -1.0,
        0.0
      ],
      "type": "VEC3"
    },
    {
      "bufferView": 1,
      "byteOffset": 21200,
      "componentType": 5126,
      "count": 79,
      "max": [
        1.0,
        2.0
      ],
      "min": [
        0.0,
        1.0
      ],
      "type": "VEC2"
    },
    {
      "bufferView": 0,
      "byteOffset": 19392,
      "componentType": 5125,
      "count": 156,
      "type": "SCALAR"
    }
  ],
  "asset": {
    "extras": {
      "author": "Vagabondare (https://sketchfab.com/Vagabondare)",
      "license": "CC-BY-4.0 (http://creativecommons.org/licenses/by/4.0/)",
      "source": "https://sketchfab.com/3d-models/simple-90s-kiosk-a04e69a838054f7cb39a635943ab9b0d",
      "title": "Simple 90's Kiosk"
    },
    "generator": "Sketchfab-12.59.0",
    "version": "2.0"
  },
  "bufferViews": [
    {
      "buffer": 0,
      "byteLength": 20016,
      "name": "floatBufferViews",
      "target": 34963
    },
    {
      "buffer": 0,
      "byteLength": 21832,
      "byteOffset": 20016,
      "byteStride": 8,
      "name": "floatBufferViews",
      "target": 34962
    },
    {
      "buffer": 0,
      "byteLength": 65496,
      "byteOffset": 41848,
      "byteStride": 12,
      "name": "floatBufferViews",
      "target": 34962
    }
  ],
  "buffers": [
    {
      "byteLength": 107344,
      "uri": "scene.bin"
    }
  ],
  "images": [
    {
      "uri": "textures/hots3_baseColor.png"
    },
    {
      "uri": "textures/met2_baseColor.png"
    },
    {
      "uri": "textures/met4_baseColor.png"
    },
    {
      "uri": "textures/metall_baseColor.png"
    },
    {
      "uri": "textures/metall_metallicRoughness.png"
    },
    {
      "uri": "textures/material_baseColor.png"
    },
    {
      "uri": "textures/vitea_baseColor.png"
    },
    {
      "uri": "textures/win_transA__trans_baseColor.png"
    }
  ],
  "materials": [
    {
      "doubleSided": true,
      "name": "hots3",
      "pbrMetallicRoughness": {
        "baseColorTexture": {
          "index": 0
        },
        "metallicFactor": 0.0
      }
    },
    {
      "doubleSided": true,
      "name": "met2",
      "pbrMetallicRoughness": {
        "baseColorTexture": {
          "index": 1
        },
        "metallicFactor": 0.0
      }
    },
    {
      "doubleSided": true,
      "name": "met4",
      "pbrMetallicRoughness": {
        "baseColorTexture": {
          "index": 2
        },
        "metallicFactor": 0.0
      }
    },
    {
      "doubleSided": true,
      "name": "metall",
      "pbrMetallicRoughness": {
        "baseColorTexture": {
          "index": 3
        },
        "metallicRoughnessTexture": {
          "index": 4
        }
      }
    },
    {
      "doubleSided": true,
      "name": "material",
      "pbrMetallicRoughness": {
        "baseColorTexture": {
          "index": 5
        },
        "metallicFactor": 0.0
      }
    },
    {
      "doubleSided": true,
      "name": "vitea",
      "pbrMetallicRoughness": {
        "baseColorTexture": {
          "index": 6
        },
        "metallicFactor": 0.0
      }
    },
    {
      "alphaMode": "BLEND",
      "doubleSided": true,
      "emissiveFactor": [
        0.01558044373103746,
        0.01558044373103746,
        0.01558044373103746
      ],
      "name": "win_transA__trans",
      "pbrMetallicRoughness": {
        "baseColorFactor": [
          1.0,
          1.0,
          1.0,
          0.45
        ],
        "baseColorTexture": {
          "index": 7
        },
        "metallicFactor": 0.0
      }
    }
  ],
  "meshes": [
    {
      "name": "Object_0",
      "primitives": [
        {
          "attributes": {
            "NORMAL": 1,
            "POSITION": 0,
            "TEXCOORD_0": 2
          },
          "indices": 3,
          "material": 0,
          "mode": 4
        }
      ]
    },
    {
      "name": "Object_1",
      "primitives": [
        {
          "attributes": {
            "NORMAL": 5,
            "POSITION": 4,
            "TEXCOORD_0": 6
          },
          "indices": 7,
          "material": 1,
          "mode": 4
        }
      ]
    },
    {
      "name": "Object_2",
      "primitives": [
        {
          "attributes": {
            "NORMAL": 9,
            "POSITION": 8,
            "TEXCOORD_0": 10
          },
          "indices": 11,
          "material": 2,
          "mode": 4
        }
      ]
    },
    {
      "name": "Object_3",
      "primitives": [
        {
          "attributes": {
            "NORMAL": 13,
            "POSITION": 12,
            "TEXCOORD_0": 14
          },
          "indices": 15,
          "material": 3,
          "mode": 4
        }
      ]
    },
    {
      "name": "Object_4",
      "primitives": [
        {
          "attributes": {
            "NORMAL": 17,
            "POSITION": 16,
            "TEXCOORD_0": 18
          },
          "indices": 19,
          "material": 4,
          "mode": 4
        }
      ]
    },
    {
      "name": "Object_5",
      "primitives": [
        {
          "attributes": {
            "NORMAL": 21,
            "POSITION": 20,
            "TEXCOORD_0": 22
          },
          "indices": 23,
          "material": 5,
          "mode": 4
        }
      ]
    },
    {
      "name": "Object_6",
      "primitives": [
        {
          "attributes": {
            "NORMAL": 25,
            "POSITION": 24,
            "TEXCOORD_0": 26
          },
          "indices": 27,
          "material": 6,
          "mode": 4
        }
      ]
    }
  ],
  "nodes": [
    {
      "children": [
        1
      ],
      "matrix": [
        1.0,
        0.0,
        0.0,
        0.0,
        0.0,
        2.220446049250313e-16,
        -1.0,
        0.0,
        0.0,
        1.0,
        2.220446049250313e-16,
        0.0,
        0.0,
        0.0,
        0.0,
        1.0
      ],
      "name": "Sketchfab_model"
    },
    {
      "children": [
        2,
        3,
        4,
        5,
        6,
        7,
        8
      ],
      "name": "kios02.obj.cleaner.materialmerger.gles"
    },
    {
      "mesh": 0,
      "name": "Object_2"
    },
    {
      "mesh": 1,
      "name": "Object_3"
    },
    {
      "mesh": 2,
      "name": "Object_4"
    },
    {
      "mesh": 3,
      "name": "Object_5"
    },
    {
      "mesh": 4,
      "name": "Object_6"
    },
    {
      "mesh": 5,
      "name": "Object_7"
    },
    {
      "mesh": 6,
      "name": "Object_8"
    }
  ],
  "samplers": [
    {
      "magFilter": 9729,
      "minFilter": 9987,
      "wrapS": 10497,
      "wrapT": 10497
    }
  ],
  "scene": 0,
  "scenes": [
    {
      "name": "Sketchfab_Scene",
      "nodes": [
        0
      ]
    }
  ],
  "textures": [
    {
      "sampler": 0,
      "source": 0
    },
    {
      "sampler": 0,
      "source": 1
    },
    {
      "sampler": 0,
      "source": 2
    },
    {
      "sampler": 0,
      "source": 3
    },
    {
      "sampler": 0,
      "source": 4
    },
    {
      "sampler": 0,
      "source": 5
    },
    {
      "sampler": 0,
      "source": 6
    },
    {
      "sampler": 0,
      "source": 7
    }
  ]
}
